<svg width="24" height="24" viewBox="0 0 24 24" fill="none" xmlns="http://www.w3.org/2000/svg">
<path fill-rule="evenodd" clip-rule="evenodd" d="M3.87868 3.87868C3 4.75736 3 6.17157 3 9V15C3 17.8284 3 19.2426 3.87868 20.1213C4.75736 21 6.17157 21 9 21H15C17.8284 21 19.2426 21 20.1213 20.1213C21 19.2426 21 17.8284 21 15V9C21 6.17157 21 4.75736 20.1213 3.87868C19.2426 3 17.8284 3 15 3H9C6.17157 3 4.75736 3 3.87868 3.87868ZM15.5556 8.33333C16.1079 8.33333 16.5556 8.78105 16.5556 9.33333V16.4444C16.5556 16.9967 16.1079 17.4444 15.5556 17.4444C15.0033 17.4444 14.5556 16.9967 14.5556 16.4444V9.33333C14.5556 8.78105 15.0033 8.33333 15.5556 8.33333ZM9.44446 11.1112C9.44446 10.5589 8.99674 10.1112 8.44446 10.1112C7.89217 10.1112 7.44446 10.5589 7.44446 11.1112V16.4445C7.44446 16.9968 7.89217 17.4445 8.44446 17.4445C8.99674 17.4445 9.44446 16.9968 9.44446 16.4445L9.44446 11.1112ZM13 12.8888C13 12.3365 12.5522 11.8888 12 11.8888C11.4477 11.8888 11 12.3365 11 12.8888V16.4444C11 16.9967 11.4477 17.4444 12 17.4444C12.5522 17.4444 13 16.9967 13 16.4444V12.8888Z" fill="#9CB0DF"/>
</svg>
