<svg width="24" height="24" viewBox="0 0 24 24" fill="none" xmlns="http://www.w3.org/2000/svg">
<path fill-rule="evenodd" clip-rule="evenodd" d="M3.35288 8.57433C3 9.34156 3 10.2144 3 11.9601V17.412C3 19.8364 3 21.0486 3.75315 21.8017C4.46838 22.517 5.59757 22.553 7.78573 22.5548V16.1264C7.78573 14.864 8.80908 13.8407 10.0714 13.8407H13.9286C15.191 13.8407 16.2143 14.864 16.2143 16.1264V22.5548C18.4024 22.553 19.5316 22.517 20.2468 21.8017C21 21.0486 21 19.8364 21 17.412V11.9601C21 10.2144 21 9.34156 20.6471 8.57433C20.2942 7.80709 19.6315 7.23905 18.3061 6.10297L17.0204 5.00093C14.6247 2.94748 13.4268 1.92075 12 1.92075C10.5732 1.92075 9.3753 2.94748 6.97961 5.00093L5.6939 6.10297C4.36847 7.23905 3.70576 7.80709 3.35288 8.57433ZM14.2143 22.5549V16.1264C14.2143 15.9686 14.0864 15.8407 13.9286 15.8407H10.0714C9.91365 15.8407 9.78573 15.9686 9.78573 16.1264V22.5549H14.2143Z" fill="#9CB0DF"/>
</svg>
