<svg width="24" height="24" viewBox="0 0 24 24" fill="none" xmlns="http://www.w3.org/2000/svg">
<path fill-rule="evenodd" clip-rule="evenodd" d="M4.58579 3.58579C4 4.17157 4 5.11438 4 7V17C4 18.8856 4 19.8284 4.58579 20.4142C5.17157 21 6.11438 21 8 21H16C17.8856 21 18.8284 21 19.4142 20.4142C20 19.8284 20 18.8856 20 17V7C20 5.11438 20 4.17157 19.4142 3.58579C18.8284 3 17.8856 3 16 3H8C6.11438 3 5.17157 3 4.58579 3.58579ZM8.57143 7.29409C8.01914 7.29409 7.57143 7.7418 7.57143 8.29409C7.57143 8.84637 8.01914 9.29409 8.57143 9.29409H15.4286C15.9809 9.29409 16.4286 8.84637 16.4286 8.29409C16.4286 7.7418 15.9809 7.29409 15.4286 7.29409H8.57143ZM8.57143 11.5294C8.01914 11.5294 7.57143 11.9771 7.57143 12.5294C7.57143 13.0817 8.01914 13.5294 8.57143 13.5294H15.4286C15.9809 13.5294 16.4286 13.0817 16.4286 12.5294C16.4286 11.9771 15.9809 11.5294 15.4286 11.5294H8.57143ZM8.57143 15.7647C8.01914 15.7647 7.57143 16.2124 7.57143 16.7647C7.57143 17.317 8.01914 17.7647 8.57143 17.7647H13.1429C13.6951 17.7647 14.1429 17.317 14.1429 16.7647C14.1429 16.2124 13.6951 15.7647 13.1429 15.7647H8.57143Z" fill="#9CB0DF"/>
</svg>
