<svg width="24" height="24" viewBox="0 0 24 24" fill="none" xmlns="http://www.w3.org/2000/svg">
<path fill-rule="evenodd" clip-rule="evenodd" d="M18.0917 1.41971C17.7012 1.02919 17.068 1.02919 16.6775 1.41972L12.1632 5.9341L8.73672 2.50763C8.34619 2.1171 7.71303 2.1171 7.3225 2.50763C6.93198 2.89815 6.93198 3.53131 7.3225 3.92184L10.4614 7.06076H6C3.79086 7.06076 2 8.85162 2 11.0608V18.4454C2 20.6545 3.79086 22.4454 6 22.4454H18C20.2091 22.4454 22 20.6545 22 18.4454V11.0608C22 8.85162 20.2091 7.06076 18 7.06076H13.8649L18.0917 2.83392C18.4822 2.44339 18.4822 1.81023 18.0917 1.41971ZM9.27271 12.8357V16.8723C9.27271 17.6157 10.055 18.0992 10.7199 17.7668L14.7566 15.7484C15.4936 15.3799 15.4936 14.3281 14.7566 13.9596L10.7199 11.9412C10.055 11.6088 9.27271 12.0923 9.27271 12.8357Z" fill="#9CB0DF"/>
</svg>
