<svg width="24" height="24" viewBox="0 0 24 24" fill="none" xmlns="http://www.w3.org/2000/svg">
<path fill-rule="evenodd" clip-rule="evenodd" d="M11.6127 13.7568C14.5831 13.7568 16.9911 11.3488 16.9911 8.37835C16.9911 5.40794 14.5831 2.99995 11.6127 2.99995C8.64225 2.99995 6.23426 5.40794 6.23426 8.37835C6.23426 11.3488 8.64225 13.7568 11.6127 13.7568ZM20.1213 18.9615C20.4092 19.4724 20.0675 20.0737 19.4931 20.1927C14.2946 21.269 8.93074 21.269 3.73224 20.1927C3.15791 20.0737 2.81613 19.4724 3.10406 18.9615C3.72885 17.8526 4.70978 16.8783 5.96325 16.135C7.58399 15.174 9.5698 14.6531 11.6127 14.6531C13.6556 14.6531 15.6414 15.174 17.2621 16.1351C18.5156 16.8783 19.4965 17.8527 20.1213 18.9615Z" fill="#9CB0DF"/>
</svg>
